REM DIRINDEX 1
REM DIRNAME folder01
TITLE ""
FILE "29_dokkai_2_q18_21.mp3" MP3
  TRACK 01 AUDIO
    TITLE "0:"
    INDEX 01 00:00:00
  TRACK 02 AUDIO
    TITLE "1:cjc118_1408"
    INDEX 01 00:00:15
  TRACK 03 AUDIO
    TITLE "1:cjc118_1409"
    INDEX 01 00:04:42
  TRACK 04 AUDIO
    TITLE "1:cjc118_1410"
    INDEX 01 00:07:39
  TRACK 05 AUDIO
    TITLE "1:cjc118_1411"
    INDEX 01 00:09:20
  TRACK 06 AUDIO
    TITLE "1:cjc118_1412"
    INDEX 01 00:14:64
  TRACK 07 AUDIO
    TITLE "1:cjc118_1413"
    INDEX 01 00:19:34
  TRACK 08 AUDIO
    TITLE "1:cjc118_1414"
    INDEX 01 00:22:38
  TRACK 09 AUDIO
    TITLE "1:cjc118_1415"
    INDEX 01 00:32:66
  TRACK 10 AUDIO
    TITLE "1:cjc118_1416"
    INDEX 01 00:39:70
  TRACK 11 AUDIO
    TITLE "1:cjc118_1417"
    INDEX 01 00:49:16
  TRACK 12 AUDIO
    TITLE "1:cjc118_1418"
    INDEX 01 00:56:00
  TRACK 13 AUDIO
    TITLE "1:cjc118_1419"
    INDEX 01 01:04:05
  TRACK 14 AUDIO
    TITLE "1:cjc118_1420"
    INDEX 01 01:06:02
  TRACK 15 AUDIO
    TITLE "1:cjc118_1421"
    INDEX 01 01:10:61
  TRACK 16 AUDIO
    TITLE "1:cjc118_1422"
    INDEX 01 01:13:63
  TRACK 17 AUDIO
    TITLE "1:cjc118_1423"
    INDEX 01 01:16:44
  TRACK 18 AUDIO
    TITLE "1:cjc118_1424"
    INDEX 01 01:17:73
  TRACK 19 AUDIO
    TITLE "1:cjc118_1425"
    INDEX 01 01:19:28
  TRACK 20 AUDIO
    TITLE "1:cjc118_1426"
    INDEX 01 01:22:33
  TRACK 21 AUDIO
    TITLE "1:cjc118_1427"
    INDEX 01 01:23:42
  TRACK 22 AUDIO
    TITLE "1:cjc118_1428"
    INDEX 01 01:26:56
  TRACK 23 AUDIO
    TITLE "1:cjc118_1429"
    INDEX 01 01:28:02
  TRACK 24 AUDIO
    TITLE "1:cjc118_1430"
    INDEX 01 01:30:52
  TRACK 25 AUDIO
    TITLE "1:cjc118_1431"
    INDEX 01 01:31:69
  TRACK 26 AUDIO
    TITLE "1:cjc118_1432"
    INDEX 01 01:34:55
  TRACK 27 AUDIO
    TITLE "1:cjc118_1433"
    INDEX 01 01:36:00
  TRACK 28 AUDIO
    TITLE "1:cjc118_1434"
    INDEX 01 01:38:73
  TRACK 29 AUDIO
    TITLE "1:cjc118_1435"
    INDEX 01 01:40:52
  TRACK 30 AUDIO
    TITLE "1:cjc118_1436"
    INDEX 01 01:42:22
  TRACK 31 AUDIO
    TITLE "1:cjc118_1437"
    INDEX 01 01:45:40
  TRACK 32 AUDIO
    TITLE "1:cjc118_1438"
    INDEX 01 01:46:51
  TRACK 33 AUDIO
    TITLE "1:cjc118_1439"
    INDEX 01 01:48:12
  TRACK 34 AUDIO
    TITLE "1:cjc118_1440"
    INDEX 01 01:49:30
  TRACK 35 AUDIO
    TITLE "1:cjc118_1441"
    INDEX 01 01:51:01
  TRACK 36 AUDIO
    TITLE "1:cjc118_1442"
    INDEX 01 01:52:18
  TRACK 37 AUDIO
    TITLE "1:cjc118_1443"
    INDEX 01 01:53:61
  TRACK 38 AUDIO
    TITLE "1:cjc118_1444"
    INDEX 01 01:55:05
  TRACK 39 AUDIO
    TITLE "1:cjc118_1445"
    INDEX 01 01:56:16
  TRACK 40 AUDIO
    TITLE "1:cjc118_1446"
    INDEX 01 01:57:60
  TRACK 41 AUDIO
    TITLE "1:cjc118_1447"
    INDEX 01 01:59:10
  TRACK 42 AUDIO
    TITLE "1:cjc118_1448"
    INDEX 01 02:03:41
  TRACK 43 AUDIO
    TITLE "1:cjc118_1449"
    INDEX 01 02:04:59
  TRACK 44 AUDIO
    TITLE "1:cjc118_1450"
    INDEX 01 02:07:69
  TRACK 45 AUDIO
    TITLE "1:cjc118_1451"
    INDEX 01 02:09:15
  TRACK 46 AUDIO
    TITLE "1:cjc118_1452"
    INDEX 01 02:12:27
  TRACK 47 AUDIO
    TITLE "1:cjc118_1453"
    INDEX 01 02:13:50
  TRACK 48 AUDIO
    TITLE "1:cjc118_1454"
    INDEX 01 02:16:72
  TRACK 49 AUDIO
    TITLE "1:cjc118_1455"
    INDEX 01 02:18:14
  TRACK 50 AUDIO
    TITLE "1:cjc118_1456"
    INDEX 01 02:21:16
  TRACK 51 AUDIO
    TITLE "1:cjc118_1457"
    INDEX 01 02:22:70
  TRACK 52 AUDIO
    TITLE "1:cjc118_1458"
    INDEX 01 02:24:32
  TRACK 53 AUDIO
    TITLE "1:cjc118_1459"
    INDEX 01 02:29:00
  TRACK 54 AUDIO
    TITLE "1:cjc118_1460"
    INDEX 01 02:30:13
  TRACK 55 AUDIO
    TITLE "1:cjc118_1461"
    INDEX 01 02:31:61
  TRACK 56 AUDIO
    TITLE "1:cjc118_1462"
    INDEX 01 02:33:07
  TRACK 57 AUDIO
    TITLE "1:cjc118_1463"
    INDEX 01 02:34:62
  TRACK 58 AUDIO
    TITLE "1:cjc118_1464"
    INDEX 01 02:36:12
  TRACK 59 AUDIO
    TITLE "1:cjc118_1465"
    INDEX 01 02:37:68
  TRACK 60 AUDIO
    TITLE "1:cjc118_1466"
    INDEX 01 02:39:14
  TRACK 61 AUDIO
    TITLE "0:"
    INDEX 01 02:40:43
